<svg xmlns="http://www.w3.org/2000/svg" width="84" height="84" viewBox="0 0 84 84"><path fill="none" stroke="#b69977" stroke-linecap="round" stroke-linejoin="round" stroke-miterlimit="50" stroke-width="2" d="M1 25h82v53a5 5 0 0 1-5 5H6a5 5 0 0 1-5-5z"/><path fill="none" stroke="#b69977" stroke-linecap="round" stroke-linejoin="round" stroke-miterlimit="50" stroke-width="2" d="M68 68h15L68 83zM78.01 24c2.75 0 4.99-2.56 4.99-5.71V8H1v10.29C1 21.45 3.24 24 5.99 24z"/><path fill="none" stroke="#b69977" stroke-linecap="round" stroke-linejoin="round" stroke-miterlimit="50" stroke-width="2" d="M16 4a3 3 0 0 1 6 0v11a3 3 0 0 1-6 0zM62 4a3 3 0 0 1 6 0v11a3 3 0 0 1-6 0zM25 37a1 1 0 1 1 2 0 1 1 0 0 1-2 0zM36 37a1 1 0 1 1 2 0 1 1 0 0 1-2 0zM46 37a1 1 0 1 1 2 0 1 1 0 0 1-2 0zM57 37a1 1 0 1 1 2 0 1 1 0 0 1-2 0zM68 37a1 1 0 1 1 2 0 1 1 0 0 1-2 0zM14 48a1 1 0 1 1 2 0 1 1 0 0 1-2 0zM25 48a1 1 0 1 1 2 0 1 1 0 0 1-2 0zM36 48a1 1 0 1 1 2 0 1 1 0 0 1-2 0zM46 48a1 1 0 1 1 2 0 1 1 0 0 1-2 0zM57 48a1 1 0 1 1 2 0 1 1 0 0 1-2 0zM68 48a1 1 0 1 1 2 0 1 1 0 0 1-2 0zM14 59a1 1 0 1 1 2 0 1 1 0 0 1-2 0zM23 59a3 3 0 1 1 6 0 3 3 0 0 1-6 0zM36 59a1 1 0 1 1 2 0 1 1 0 0 1-2 0zM46 59a1 1 0 1 1 2 0 1 1 0 0 1-2 0zM57 59a1 1 0 1 1 2 0 1 1 0 0 1-2 0zM68 59a1 1 0 1 1 2 0 1 1 0 0 1-2 0zM14 70a1 1 0 1 1 2 0 1 1 0 0 1-2 0zM25 70a1 1 0 1 1 2 0 1 1 0 0 1-2 0zM36 70a1 1 0 1 1 2 0 1 1 0 0 1-2 0zM46 70a1 1 0 1 1 2 0 1 1 0 0 1-2 0z"/></svg>