<?xml version="1.0" encoding="UTF-8"?>
<svg width="84px" height="85px" viewBox="0 0 84 85" version="1.1" xmlns="http://www.w3.org/2000/svg" xmlns:xlink="http://www.w3.org/1999/xlink">
    <!-- Generator: Sketch 43.1 (39012) - http://www.bohemiancoding.com/sketch -->
    <title>icon</title>
    <desc>Created with Sketch.</desc>
    <defs></defs>
    <g id="Page-1" stroke="none" stroke-width="1" fill="none" fill-rule="evenodd">
        <g id="desktop" transform="translate(-474.000000, -4844.000000)">
            <g id="icon" transform="translate(468.000000, 4839.000000)">
                <rect id="bg" x="5" y="5" width="86" height="86"></rect>
                <g id="Group-3" transform="translate(45.000000, 51.000000) rotate(45.000000) translate(-45.000000, -51.000000) translate(35.000000, 1.000000)" stroke="#E3BF95" stroke-width="2" stroke-linecap="round" stroke-linejoin="round">
                    <rect id="Rectangle-4" x="-1.8189894e-12" y="10" width="20" height="70"></rect>
                    <polygon id="Rectangle-4" transform="translate(10.000000, 90.000000) scale(1, -1) translate(-10.000000, -90.000000) " points="10 80 20 100 0 100"></polygon>
                    <path d="M0,0 L20,0 L20,5.990237 C20,8.20476795 18.2075324,10 16.00077,10 L3.99922997,10 C1.79051625,10 0,8.2122004 0,5.990237 L0,0 Z" id="Rectangle-4" transform="translate(10.000000, 5.000000) scale(1, -1) translate(-10.000000, -5.000000) "></path>
                    <path d="M5.75735931,10 L5.75735931,80" id="Path-7"></path>
                    <path d="M14.2426407,10 L14.2426407,80" id="Path-7"></path>
                </g>
                <path d="M57,37.8477524 L57,30.7208812 C62.3802146,27.6085928 66,21.7914998 66,15.1289607 C66,8.06151816 61.9268739,1.94540518 56,-1 L56,15.1289607 L48,19.1289607 L40,15.1289607 L40,-1 C34.0731261,1.94540518 30,8.06151816 30,15.1289607 C30,21.7914998 33.6197854,27.6085928 38.999995,30.7208783 L39,37.8561828 M39,57.8709134 L39,64.5370402 C33.6197854,67.6493286 30,73.4664216 30,80.1289607 C30,87.1964032 34.0731261,93.3125162 40,96.2579214 L40,80.1289607 L48,76.1289607 L56,80.1289607 L56,96.2579214 C61.9268739,93.3125162 66,87.1964032 66,80.1289607 C66,73.4664216 62.3802146,67.6493286 57.000005,64.5370431 L56.9735476,57.9030352" id="Combined-Shape" stroke="#E3BF95" stroke-width="2" stroke-linecap="round" stroke-linejoin="round" transform="translate(48.000000, 47.628961) rotate(-45.000000) translate(-48.000000, -47.628961) "></path>
            </g>
        </g>
    </g>
</svg>