<?xml version="1.0" encoding="UTF-8"?>
<svg width="78px" height="83px" viewBox="0 0 78 83" version="1.1" xmlns="http://www.w3.org/2000/svg" xmlns:xlink="http://www.w3.org/1999/xlink">
    <!-- Generator: Sketch 43.1 (39012) - http://www.bohemiancoding.com/sketch -->
    <title>icon</title>
    <desc>Created with Sketch.</desc>
    <defs></defs>
    <g id="Page-1" stroke="none" stroke-width="1" fill="none" fill-rule="evenodd">
        <g id="desktop" transform="translate(-152.000000, -4462.000000)">
            <g id="icon" transform="translate(148.000000, 4460.000000)">
                <rect id="bg" x="0" y="0" width="86" height="86"></rect>
                <g id="Group-12" transform="translate(5.000000, 3.000000)" stroke="#B69977" stroke-width="2" stroke-linecap="round" stroke-linejoin="round">
                    <path d="M55,25.1523297 L55,33.9933996 C55,43.3858856 47.3909051,51 38,51 L38,51 C28.6111593,51 21,43.3820907 21,34.0030403 L21,25.0843404" id="Rectangle-26"></path>
                    <path d="M43.0341215,2.50166183 C57.5940492,5.59999496 58,22 58,22 L18,22 C18,22 18.4073683,5.54273137 33.0421992,2.48556995" id="Rectangle-26"></path>
                    <rect id="Rectangle-27" x="16" y="22" width="44" height="3" rx="1.5"></rect>
                    <path d="M33,1.991155 C33,0.891470458 33.8874333,0 34.999615,0 L41.000385,0 C42.1047419,0 43,0.889673948 43,1.991155 L43,22 L33,22 L33,1.991155 Z" id="Rectangle-28"></path>
                    <path d="M27,5 L27,21" id="Path-24"></path>
                    <path d="M49,5 L49,21" id="Path-24"></path>
                    <polyline id="Path-25" points="36 51.8909057 30.7853585 61 20 49.4265311 23.3878444 43.2982993"></polyline>
                    <polyline id="Path-25" transform="translate(48.000000, 52.030913) scale(-1, 1) translate(-48.000000, -52.030913) " points="56 51.8909057 50.7853585 61 40 49.4265311 43.5536842 43.0618259"></polyline>
                    <polyline id="Rectangle-29" points="43 57 42 60 34 60 33 57"></polyline>
                    <polygon id="Rectangle-30" points="34 60 42 60 45 80 31 80"></polygon>
                    <path d="M20.534986,50 L10.5208253,55.4537276 C8.57632717,56.5127043 6.68903293,59.1279909 6.30230589,61.3128151 L2.99456168,80 L73.1481433,80.0171004 L69.6680085,61.2845328 C69.2642091,59.1109967 67.3720382,56.4745901 65.4479176,55.3994133 L55.5244258,49.8542785" id="Path-26"></path>
                    <path d="M51,6 L76,6 L76,61 L69.6606657,61 M6.16599107,61 L0,61 L0,6 L25,6" id="Rectangle-31"></path>
                    <path d="M53,71 L63,71" id="Path-27"></path>
                </g>
            </g>
        </g>
    </g>
</svg>