<?xml version="1.0" encoding="UTF-8"?>
<svg width="84px" height="84px" viewBox="0 0 84 84" version="1.1" xmlns="http://www.w3.org/2000/svg" xmlns:xlink="http://www.w3.org/1999/xlink">
    <!-- Generator: Sketch 43.1 (39012) - http://www.bohemiancoding.com/sketch -->
    <title>icon</title>
    <desc>Created with Sketch.</desc>
    <defs></defs>
    <g id="Page-1" stroke="none" stroke-width="1" fill="none" fill-rule="evenodd">
        <g id="desktop" transform="translate(-174.000000, -5088.000000)">
            <g id="icon" transform="translate(173.000000, 5087.000000)">
                <rect id="bg" x="0" y="0" width="86" height="86"></rect>
                <g id="Group-6" transform="translate(2.000000, 38.000000)" stroke="#E3BF95" stroke-width="2" stroke-linecap="round" stroke-linejoin="round">
                    <path d="M13.9291111,24 L14,24 L14,46 L4,46 L4,31.3263688 C1.63505267,30.2029049 0,27.792396 0,25 C0,21.1340068 3.13400675,18 7,18 C10.5264719,18 13.4438815,20.6077059 13.9291111,24 Z" id="Combined-Shape"></path>
                    <path d="M51.9291111,24 L52,24 L52,46 L42,46 L42,31.3263688 C39.6350527,30.2029049 38,27.792396 38,25 C38,21.1340068 41.1340068,18 45,18 C48.5264719,18 51.4438815,20.6077059 51.9291111,24 Z" id="Combined-Shape" transform="translate(45.000000, 32.000000) scale(-1, 1) translate(-45.000000, -32.000000) "></path>
                    <path d="M14,32.009763 C14,29.795232 15.7842933,28 17.990053,28 L34.009947,28 C36.2135924,28 38,29.7877996 38,32.009763 L38,38 L14,38 L14,32.009763 Z" id="Rectangle-8"></path>
                    <rect id="Rectangle-8" transform="translate(26.000000, 40.000000) scale(1, -1) translate(-26.000000, -40.000000) " x="14" y="38" width="24" height="4"></rect>
                    <path d="M8,17.9583089 L8,7.99839226 C8,3.58100219 11.5834312,0 16.0007413,0 L35.9992587,0 C40.4179461,0 44,3.57924982 44,8.0032254 L44,17.9583089" id="Rectangle-9"></path>
                    <path d="M19,8 L19,12" id="Path-10"></path>
                    <path d="M17,10 L21,10" id="Path-11"></path>
                    <path d="M33,8 L33,12" id="Path-10"></path>
                    <path d="M31,10 L35,10" id="Path-11"></path>
                    <path d="M19,17 L19,21" id="Path-10"></path>
                    <path d="M17,19 L21,19" id="Path-11"></path>
                    <path d="M33,17 L33,21" id="Path-10"></path>
                    <path d="M31,19 L35,19" id="Path-11"></path>
                </g>
                <g id="Group-7" transform="translate(60.000000, 37.000000)" stroke="#E3BF95" stroke-width="2" stroke-linecap="round" stroke-linejoin="round">
                    <rect id="Rectangle-10" x="0" y="33" width="24" height="10"></rect>
                    <path d="M10,37 L14,37" id="Path-12"></path>
                    <rect id="Rectangle-10" x="0" y="23" width="24" height="10"></rect>
                    <path d="M10,27 L14,27" id="Path-12"></path>
                    <rect id="Rectangle-11" x="2" y="43" width="4" height="4"></rect>
                    <rect id="Rectangle-11" x="18" y="43" width="4" height="4"></rect>
                    <polygon id="Rectangle-12" points="7 0 17 0 20 14 4 14"></polygon>
                    <path d="M8,21.5 C8,20.6715729 8.66831553,20 9.50473881,20 L14.4952612,20 C15.3263055,20 16,20.6657972 16,21.5 L16,23 L8,23 L8,21.5 Z" id="Rectangle-13"></path>
                    <path d="M12,14 L12,20" id="Path-13"></path>
                </g>
                <rect id="Rectangle-14" stroke="#E3BF95" stroke-width="2" stroke-linecap="round" stroke-linejoin="round" x="5" y="2" width="46" height="24"></rect>
                <path d="M14,22 L18,22" id="Path-12" stroke="#E3BF95" stroke-width="2" stroke-linecap="round" stroke-linejoin="round"></path>
                <path d="M38,22 L42,22" id="Path-12" stroke="#E3BF95" stroke-width="2" stroke-linecap="round" stroke-linejoin="round"></path>
                <path d="M51,10 L81,10" id="Path-12" stroke="#E3BF95" stroke-width="2" stroke-linecap="round" stroke-linejoin="round"></path>
                <path d="M51,18 L81,18" id="Path-12" stroke="#E3BF95" stroke-width="2" stroke-linecap="round" stroke-linejoin="round"></path>
                <rect id="Rectangle-14" stroke="#E3BF95" stroke-width="2" stroke-linecap="round" stroke-linejoin="round" transform="translate(66.000000, 14.000000) scale(-1, 1) translate(-66.000000, -14.000000) " x="51" y="2" width="30" height="24"></rect>
                <path d="M28,2 L28,26" id="Path-14" stroke="#E3BF95" stroke-width="2" stroke-linecap="round" stroke-linejoin="round"></path>
            </g>
        </g>
    </g>
</svg>