<svg xmlns="http://www.w3.org/2000/svg" width="142" height="132" viewBox="0 0 142 132"><path fill="#e3bf95" d="M1.17 94.75L0 94.54v-.33h5.78v.3L4 94.79l3.72 10.62h.12l3.84-10.31-2.28-.56v-.33h4.58v.3l-1.37.54-4.89 12.76H6.16zM22.58 108c-4.48 0-7.98-2.1-7.98-6.84 0-4.22 3.36-7.16 8.03-7.16 2.26 0 3.5.49 4.25.77v3.59h-.53l-1.22-3.12a5.4 5.4 0 0 0-2.55-.56c-2.78 0-5.15 2.38-5.15 6.23 0 3.92 2.25 6.34 5.49 6.34.48 0 1.03-.09 1.56-.25v-5.35l-2.23-.3V101h4.72v6.09c-.53.23-2.11.91-4.39.91zm6.12-.19v-.35l2.2-.3V94.89l-2.2-.31v-.37H35c3.17 0 5.23 1.05 5.23 3.27 0 1.49-1.54 2.73-2.97 3.1v.05c1.39.07 3.93.81 3.93 3.31 0 2.26-1.87 3.87-5.59 3.87zm5.68-6.67h-.94v5.97h1.47c2.23 0 3.64-1.14 3.64-3.1 0-2.36-1.85-2.87-4.17-2.87zm0-6.32h-.94v5.64h1.11c1.96 0 3.07-.95 3.07-2.7 0-2.06-1.37-2.94-3.24-2.94zm9.35 8.26v-8.22l-1.85-.28v-.37h6.62v.35l-2.11.3v8.05c0 3.18 1.65 4.3 3.64 4.3 2.62 0 3.89-1.75 3.89-4.76v-7.28l-2.52-.59v-.37h5.32v.35l-1.87.56v7.4c0 4.03-2.59 5.48-5.22 5.48-3.22 0-5.9-1.28-5.9-4.92zm14.02 4.38l2.21-.3V94.89l-2.21-.31v-.37h6.98v.35l-2.23.3v12.28l2.23.3v.37h-6.98zm8.2 0l2.21-.3V94.89l-2.21-.31v-.37h6.96v.35l-2.21.3v12.25h4.63l1.68-3.31.5.14-.67 3.87H65.95zm11.97.35v-.35l2.2-.3V94.89l-2.2-.31v-.37h6.42c4.51 0 8.34 1.12 8.34 6.46 0 4.72-3.54 7.14-8.22 7.14zm6.25-12.92h-1.51v12.22h1.75c3.55 0 5.45-1.47 5.45-6.09 0-3.99-1.47-6.13-5.69-6.13zm10 12.57l2.21-.3V94.89l-2.21-.31v-.37h6.98v.35l-2.23.3v12.28l2.23.3v.37h-6.98zm8.18 0l1.94-.56V95.24l-1.97-.66v-.37h3.77l8.08 9.4v-8.44l-2.33-.59v-.37h5.2v.35l-1.92.54V108h-.69l-9.21-11.04v9.92l2.4.56v.37h-5.27zm23.71.54c-4.49 0-7.99-2.1-7.99-6.84 0-4.22 3.36-7.16 8.04-7.16 2.25 0 3.5.49 4.24.77v3.59h-.53l-1.22-3.12a5.38 5.38 0 0 0-2.54-.56c-2.78 0-5.16 2.38-5.16 6.23 0 3.92 2.26 6.34 5.49 6.34.48 0 1.03-.09 1.56-.25v-5.35l-2.23-.3V101h4.72v6.09c-.52.23-2.11.91-4.38.91zm14.86-9.78h.5v-3.38a9.72 9.72 0 0 0-4.12-.84c-2.59 0-4.79 1.54-4.79 4.06 0 2.26 1.77 3.2 3.52 3.85 1.82.68 3.62 1.28 3.62 2.82 0 1.89-1.34 2.59-2.9 2.59a5.82 5.82 0 0 1-2.93-.77l-1.03-2.89h-.48v3.5c1.32.54 2.71.84 4.15.84 2.85 0 5.54-1.17 5.54-3.99 0-2.73-2.3-3.48-4.36-4.22-1.66-.59-3-1.38-3-2.76 0-1.21 1.05-2.33 2.9-2.33.91 0 1.7.26 2.4.68z"/><path fill="#fff" fill-opacity=".76" d="M1.75 126.32l-.7 2.22c-.1.18-.33.36-.5.36-.3 0-.55-.19-.55-.49l.03-.2 3.12-9.47c.12-.42.31-.74.71-.74.4 0 .6.33.74.74l3.11 9.47.02.2c0 .3-.23.49-.55.49-.19 0-.44-.15-.5-.36l-.72-2.22zm2.11-6.68l-1.81 5.7h3.61zm8.49 9.22c-.57 0-1.27-.12-1.91-.32v2.99c0 .26-.19.47-.5.47-.35 0-.52-.21-.52-.47v-8.37c0-.53-.06-.84-.28-1.14a.44.44 0 0 1-.1-.26c0-.26.22-.44.46-.44.2 0 .42.18.59.42.78-.4 1.6-.72 2.4-.72 1.61 0 2.42 1.15 2.42 2.81v2.02c0 1.77-.61 3.01-2.56 3.01zm-1.91-5.7v4.52a5.1 5.1 0 0 0 1.75.37c1.25 0 1.7-.68 1.7-2.2v-2.02c0-1.27-.53-1.97-1.67-1.97-.56 0-1.25.25-1.86.61.05.22.08.45.08.69zm5.88-1.4c-.05-.06-.06-.14-.06-.23 0-.27.26-.46.48-.46.25 0 .36.13.5.34l1.8 2.68 1.8-2.68c.14-.21.25-.34.5-.34.22 0 .49.19.49.46 0 .09-.02.17-.06.23l-2.16 3.11 2.31 3.3c.03.04.05.13.05.19a.5.5 0 0 1-.52.51c-.25 0-.34-.1-.51-.34l-1.93-2.85-2 2.95c-.11.17-.24.24-.41.24-.3 0-.53-.19-.53-.48 0-.07.02-.12.06-.19l2.35-3.33zm7.24 6.59v-6.77c0-.29.22-.53.51-.53.29 0 .51.24.51.53v5.62l3.8-5.83c.13-.2.33-.32.58-.32.32 0 .55.24.55.57v6.77a.5.5 0 0 1-.5.51.5.5 0 0 1-.52-.51v-5.61l-3.77 5.84a.71.71 0 0 1-.56.28c-.34 0-.6-.24-.6-.55zm10.82.04c0 .27-.22.48-.5.48-.29 0-.52-.21-.52-.48v-6.31h-1.78a.47.47 0 0 1-.47-.46c0-.27.2-.46.47-.46h4.6c.26 0 .45.19.45.46 0 .24-.19.46-.45.46h-1.8zm6.33-.34c.72 0 1.16-.2 1.73-.44a.38.38 0 0 1 .17-.05c.25 0 .44.21.44.42 0 .68-1.66.89-2.49.89-1.75 0-2.76-1.07-2.76-2.45v-2.89c0-1.42 1.01-2.51 2.85-2.51 1.71 0 2.54.95 2.54 2.41 0 1.35-.77 2.18-2.6 2.18-.52 0-1.16-.05-1.77-.17v1.07c0 .92.64 1.54 1.89 1.54zm1.48-4.62c0-1.1-.58-1.55-1.59-1.55-1.12 0-1.78.6-1.78 1.53v1.28c.67.09 1.5.12 1.83.12 1.32 0 1.54-.67 1.54-1.38zm3.36 5.44c-.3 0-.52-.21-.52-.48v-6.83c0-.27.22-.49.52-.49.27 0 .5.22.5.49v2.86h1.17l2.13-3.1c.11-.16.25-.24.42-.24.27 0 .47.15.47.41 0 .1-.03.21-.07.28l-2.26 3.22 2.26 3.21a.7.7 0 0 1 .09.28c.02.24-.22.39-.49.39a.47.47 0 0 1-.42-.22l-2.36-3.43h-.94v3.17a.5.5 0 0 1-.5.48zm8.81-.48c0 .27-.22.48-.5.48s-.52-.21-.52-.48v-6.31h-1.78a.47.47 0 0 1-.47-.46c0-.27.2-.46.47-.46h4.6c.26 0 .45.19.45.46 0 .24-.19.46-.45.46h-1.8zm6.92-.53c-.72 2.2-1.44 3.94-3.37 3.94-.31 0-.53-.19-.53-.46 0-.23.17-.45.47-.47 1.11-.04 1.56-.55 2.08-2.03l-2.57-7.16c-.04-.04-.04-.12-.04-.16 0-.27.23-.45.51-.45.19 0 .38.13.46.31l2.12 6.24c.57-1.91 1.32-4.31 1.88-6.24.1-.16.28-.31.47-.31.25 0 .5.19.5.49l-.01.15zm6.39 1c-.56 0-1.26-.12-1.9-.32v2.99c0 .26-.19.47-.5.47-.35 0-.52-.21-.52-.47v-8.37c0-.53-.06-.84-.28-1.14a.39.39 0 0 1-.1-.26c0-.26.22-.44.46-.44.2 0 .42.18.59.42.78-.4 1.6-.72 2.4-.72 1.61 0 2.42 1.15 2.42 2.81v2.02c0 1.77-.61 3.01-2.57 3.01zm-1.9-5.7v4.52a5.1 5.1 0 0 0 1.75.37c1.25 0 1.7-.68 1.7-2.2v-2.02c0-1.27-.53-1.97-1.67-1.97-.56 0-1.25.25-1.86.61.04.22.08.45.08.69zm10.4 1.52v-1.04c0-1.22-.59-1.79-1.83-1.79-.58 0-.91.12-1.27.33a.68.68 0 0 1-.37.12c-.24 0-.33-.21-.35-.39-.06-.63 1.1-.89 2.15-.89 1.92 0 2.69 1.06 2.69 3.03v3.39c0 .39.14.59.42.59l.13-.01c.23 0 .34.21.34.4 0 .3-.31.41-.59.41-.49 0-.91-.33-1.19-.86-.66.6-1.4.9-2.24.9-1.58 0-2.35-.9-2.35-2.21v-.06c0-1.44.89-2.19 2.72-2.19.54 0 1.13.1 1.74.27zm-1.75.52c-1.44 0-1.71.65-1.71 1.42v.06c0 .78.36 1.35 1.55 1.35.72 0 1.3-.24 1.91-.74v-1.8a6.07 6.07 0 0 0-1.75-.29zm9.97 3.15v-6.77c0-.29.22-.53.5-.53.29 0 .51.24.51.53v5.62l3.81-5.83c.12-.2.32-.32.57-.32.32 0 .55.24.55.57v6.77a.5.5 0 0 1-.5.51.5.5 0 0 1-.51-.51v-5.61l-3.78 5.84a.7.7 0 0 1-.56.28c-.34 0-.59-.24-.59-.55zm18.3-7.19c.29 0 .5.22.5.49v6.3h.57c.28 0 .5.23.5.5v1.99c0 .27-.22.48-.5.48s-.52-.21-.52-.48v-1.69h-5.65v1.69a.5.5 0 0 1-.5.48c-.3 0-.51-.21-.51-.48v-1.99c0-.27.21-.5.51-.5h.35c.54-.52.83-1.63.9-3.15l.14-3.15c.05-.37.32-.49.51-.49zm-3.39 3.64a6.29 6.29 0 0 1-.83 3.15h3.71v-6h-2.77zm6.49 3.55v-6.77c0-.29.22-.53.5-.53.3 0 .52.24.52.53v5.62l3.8-5.83c.13-.2.33-.32.58-.32.31 0 .55.24.55.57v6.77c0 .29-.24.51-.5.51a.5.5 0 0 1-.52-.51v-5.61l-3.77 5.84a.73.73 0 0 1-.56.28c-.35 0-.6-.24-.6-.55zm11.14-3.48v.02c1.15.19 1.63.87 1.63 1.88 0 1.28-.86 2.1-2.63 2.1-.81 0-2.38-.15-2.38-.78 0-.2.14-.44.54-.44.03 0 .04 0 .06.02.42.16 1.05.38 1.83.38 1.02 0 1.59-.38 1.59-1.36 0-.46-.12-1.26-2-1.37-.31-.01-.67-.04-.67-.42 0-.34.33-.36.64-.39 1.67-.15 1.88-.98 1.88-1.46 0-.78-.49-1.2-1.6-1.2-.8 0-1.23.36-1.64.36-.27 0-.45-.19-.45-.42 0-.59 1.31-.77 2.14-.77 1.69 0 2.52.86 2.52 2.11 0 .92-.41 1.56-1.46 1.74zm7.56-.19v-1.04c0-1.22-.59-1.79-1.83-1.79-.58 0-.91.12-1.27.33a.68.68 0 0 1-.37.12c-.24 0-.33-.21-.35-.39-.06-.63 1.1-.89 2.15-.89 1.92 0 2.69 1.06 2.69 3.03v3.39c0 .39.14.59.42.59l.13-.01c.23 0 .34.21.34.4 0 .3-.31.41-.6.41-.48 0-.9-.33-1.18-.86-.66.6-1.4.9-2.24.9-1.58 0-2.35-.9-2.35-2.21v-.06c0-1.44.89-2.19 2.72-2.19.54 0 1.13.1 1.74.27zm-1.75.52c-1.44 0-1.71.65-1.71 1.42v.06c0 .78.36 1.35 1.55 1.35.72 0 1.3-.24 1.91-.74v-1.8a6.12 6.12 0 0 0-1.75-.29zm5.27 3.15v-6.77c0-.29.22-.53.5-.53.3 0 .52.24.52.53v5.62l3.8-5.83c.13-.2.33-.32.58-.32.31 0 .55.24.55.57v6.77c0 .29-.24.51-.5.51a.5.5 0 0 1-.52-.51v-5.61l-3.77 5.84a.73.73 0 0 1-.56.28c-.35 0-.6-.24-.6-.55zm4.09-9.76c.1-.15.25-.21.39-.21.2 0 .39.12.29.43-.22.75-1.12 1.16-1.81 1.16-.67 0-1.69-.39-1.85-1.16a.35.35 0 0 1 .33-.43c.14 0 .28.06.38.21.37.48.72.67 1.14.67.37 0 .77-.19 1.13-.67zm5.22 9.8v-3.17h3.66v3.17c0 .27.24.48.52.48s.5-.21.5-.48v-6.83a.5.5 0 0 0-.5-.49c-.28 0-.52.22-.52.49v2.86h-3.66v-2.86a.5.5 0 0 0-.5-.49c-.28 0-.52.22-.52.49v6.83c0 .27.24.48.52.48s.5-.21.5-.48z"/><path fill="#ddb280" d="M79.04 12.4c1.87.32 3.83.84 5.67 1.63l-5.19 14.98-4.88 14.08-2.2 6.35-2.93-7.91a2348.6 2348.6 0 0 1-6.07-16.62c-1.05-2.91-2.11-5.82-3.13-8.75a26.77 26.77 0 0 1 4.66-2.27 27.34 27.34 0 0 1 14.07-1.49zm2.61 32.85v.69c0 .05 1.94.3 2.13.34.68.14 1.42.32 2.01.69a4.7 4.7 0 0 1 2.07 3.95v13.8c0 .84-1.43 3.23-4.18 3.88-3.79.89-7.92.87-11.76.38-4.86-.62-9.4-1.76-13.27-5-6.7-5.63-8.8-15.42-8.8-23.84 0-6.9 1.42-14.94 6.08-20.3l1.21 3.23A2834.63 2834.63 0 0 1 68.52 54l2.17 5.97s10.38-30.03 15.65-45.14c1.67.92 3.17 2.11 4.3 3.62a14.68 14.68 0 0 1 2.45 5.46l.6.01V10.58h-.51s-.73 2.11-3.16 2.05c-.92-.02-1.85-.18-2.78-.37a863.3 863.3 0 0 1 1.95-5.51 9.48 9.48 0 0 1 4.58-5.15c.18-.09 2.1-.82 2.1-.82l.01-.78H81.63v.76c1.66.08 3.51.25 4.6 1.52.66.76.91 1.79.93 2.8.04 1.74-.54 3.44-1.11 5.09l-.58 1.69-.94-.21c-2.5-.5-5.03-1.04-7.58-1.25-6.06-.5-12.16.63-17.49 3.33a214.3 214.3 0 0 1-2.55-7.91c-.15-.5-.3-1.01-.26-1.54.14-2.24 3.42-3.2 5.23-3.52v-.7H43v.75s1.06-.05 2.25.2c2.95.63 4.78 3.54 5.83 6.15 1.28 3.16 2.49 6.34 3.68 9.54a28.95 28.95 0 0 0-4.79 4.67c-.33.41-.64.83-.95 1.25-5.99 8.35-6.74 18.84-3.67 28.45.7 2.19 1.53 4.34 2.61 6.38 4.19 7.94 12.47 11.89 21.02 13.02a60.8 60.8 0 0 0 15.13.11 57.39 57.39 0 0 0 9.63-2c0-5.23-.08-10.47-.01-15.7.02-1.31-.14-2.72.46-3.94a4.62 4.62 0 0 1 2.29-2.05c.32-.14 3.52-.92 3.52-.81v-.83z"/></svg>