<?xml version="1.0" encoding="UTF-8"?>
<svg width="84px" height="85px" viewBox="0 0 84 85" version="1.1" xmlns="http://www.w3.org/2000/svg" xmlns:xlink="http://www.w3.org/1999/xlink">
    <!-- Generator: Sketch 43.1 (39012) - http://www.bohemiancoding.com/sketch -->
    <title>icon</title>
    <desc>Created with Sketch.</desc>
    <defs></defs>
    <g id="Page-1" stroke="none" stroke-width="1" fill="none" fill-rule="evenodd">
        <g id="desktop" transform="translate(-474.000000, -5083.000000)">
            <g id="icon" transform="translate(468.000000, 5078.000000)">
                <rect id="bg" x="5" y="5" width="86" height="86"></rect>
                <path d="M57.2709892,35.8025799 L57,30.7208812 C62.3802146,27.6085928 66,21.7914998 66,15.1289607 C66,8.06151816 61.9268739,1.94540518 56,-1 L56,15.1289607 L48,19.1289607 L40,15.1289607 L40,-1 C34.0731261,1.94540518 30,8.06151816 30,15.1289607 C30,21.7914998 33.6197854,27.6085928 38.999995,30.7208783 L38.820415,44.7880895 M38.9452578,50.9255985 L39,64.5370402 C33.6197854,67.6493286 30,73.4664216 30,80.1289607 C30,87.1964032 34.0731261,93.3125162 40,96.2579214 L40,80.1289607 L48,76.1289607 L56,80.1289607 L56,96.2579214 C61.9268739,93.3125162 66,87.1964032 66,80.1289607 C66,73.4664216 62.3802146,67.6493286 57.000005,64.5370431 L57.0098101,59.8350135" id="Combined-Shape" stroke="#E3BF95" stroke-width="2" stroke-linecap="round" stroke-linejoin="round" transform="translate(48.000000, 47.628961) rotate(45.000000) translate(-48.000000, -47.628961) "></path>
                <g id="Group-8" transform="translate(48.707107, 48.707107) rotate(-45.000000) translate(-48.707107, -48.707107) translate(36.707107, -2.292893)" stroke="#E3BF95" stroke-width="2" stroke-linecap="round" stroke-linejoin="round">
                    <polygon id="Rectangle-15" points="9 -5.68434189e-13 15 -5.68434189e-13 17 8.4 15 13.0666667 15.0097673 55.6659958 9.00976729 55.6659958 9 13.0666667 7 8.4"></polygon>
                    <rect id="Rectangle-16" x="2.34479103e-13" y="55.7573593" width="24" height="8" rx="4"></rect>
                    <path d="M3,63.7573593 L21,63.7573593 L21,92.7518898 C21,97.7254733 16.9716556,101.757359 12,101.757359 L12,101.757359 C7.02943725,101.757359 3,97.7266693 3,92.7518898 L3,63.7573593 Z" id="Rectangle-16"></path>
                    <path d="M8.7476679,63.7573593 L8.80738293,89.4853365 C8.81049098,90.8244297 7.98105221,92.6005195 6.95573254,93.4515531 L3.97340212,95.9269407" id="Path-15"></path>
                    <path d="M19.9863428,64.0114001 L19.9248626,89.565157 C19.9216273,90.9098837 19.083021,92.701123 18.0497067,93.5677434 L15.1196512,96.0251233" id="Path-15" transform="translate(17.552997, 80.018262) scale(-1, 1) translate(-17.552997, -80.018262) "></path>
                </g>
            </g>
        </g>
    </g>
</svg>