<?xml version="1.0" encoding="UTF-8"?>
<svg width="84px" height="84px" viewBox="0 0 84 84" version="1.1" xmlns="http://www.w3.org/2000/svg" xmlns:xlink="http://www.w3.org/1999/xlink">
    <!-- Generator: Sketch 43.1 (39012) - http://www.bohemiancoding.com/sketch -->
    <title>icon</title>
    <desc>Created with Sketch.</desc>
    <defs></defs>
    <g id="Page-1" stroke="none" stroke-width="1" fill="none" fill-rule="evenodd">
        <g id="desktop" transform="translate(-774.000000, -5088.000000)">
            <g id="icon" transform="translate(773.000000, 5087.000000)">
                <rect id="bg" x="0" y="0" width="86" height="86"></rect>
                <g id="Group-9" transform="translate(2.000000, 2.000000)" stroke="#E3BF95" stroke-width="2" stroke-linecap="round" stroke-linejoin="round">
                    <polygon id="Rectangle-17" points="6 10 76 10 82 40 0 40"></polygon>
                    <rect id="Rectangle-18" x="4" y="40" width="74" height="42"></rect>
                    <rect id="Rectangle-18" x="32" y="52" width="18" height="30"></rect>
                    <rect id="Rectangle-18" x="9" y="45" width="18" height="24"></rect>
                    <rect id="Rectangle-18" x="55" y="45" width="18" height="24"></rect>
                    <path d="M46,66 L46,68" id="Path-16"></path>
                    <path d="M18,45 L18,69" id="Path-17"></path>
                    <path d="M64,45 L64,69" id="Path-17"></path>
                    <path d="M9,57 L27,57" id="Path-18"></path>
                    <path d="M32,45 L50,45" id="Path-18"></path>
                    <path d="M51,4 L65,4" id="Path-18"></path>
                    <path d="M11,17 L14,17" id="Path-18"></path>
                    <path d="M11,25 L14,25" id="Path-18"></path>
                    <path d="M14,21 L17,21" id="Path-18"></path>
                    <path d="M1,35 L81,35" id="Path-18"></path>
                    <path d="M39,28 L79,28" id="Path-18"></path>
                    <path d="M4,74 L32,74" id="Path-18"></path>
                    <path d="M50,74 L78,74" id="Path-18"></path>
                    <path d="M55,57 L73,57" id="Path-18"></path>
                    <rect id="Rectangle-19" x="51" y="0" width="14" height="10"></rect>
                </g>
            </g>
        </g>
    </g>
</svg>