<?xml version="1.0" encoding="UTF-8"?>
<svg width="86px" height="86px" viewBox="0 0 86 86" version="1.1" xmlns="http://www.w3.org/2000/svg" xmlns:xlink="http://www.w3.org/1999/xlink">
    <!-- Generator: Sketch 43.1 (39012) - http://www.bohemiancoding.com/sketch -->
    <title>icon</title>
    <desc>Created with Sketch.</desc>
    <defs></defs>
    <g id="Page-1" stroke="none" stroke-width="1" fill="none" fill-rule="evenodd">
        <g id="desktop" transform="translate(-172.000000, -4844.000000)">
            <g id="icon" transform="translate(172.000000, 4844.000000)">
                <rect id="bg" x="0" y="0" width="86" height="86"></rect>
                <g id="Group" transform="translate(1.000000, 1.000000)" stroke="#E3BF95" stroke-width="2" stroke-linecap="round" stroke-linejoin="round">
                    <polygon id="Path-2" points="0 -4.11601141e-13 0 84 84 84"></polygon>
                    <polygon id="Path-2" points="12 34 12 72 50 72"></polygon>
                    <path d="M42,43 L37.7573593,47.2426407" id="Path-5"></path>
                    <path d="M30,31 L25.7573593,35.2426407" id="Path-5"></path>
                    <path d="M19,20 L14.7573593,24.2426407" id="Path-5"></path>
                    <path d="M13,14 L8.75735931,18.2426407" id="Path-5"></path>
                    <path d="M53,54 L48.7573593,58.2426407" id="Path-5"></path>
                    <path d="M65,66 L60.7573593,70.2426407" id="Path-5"></path>
                    <path d="M48,48 L43.7573593,52.2426407" id="Path-5"></path>
                    <path d="M36,37 L31.7573593,41.2426407" id="Path-5"></path>
                    <path d="M25,25 L20.7573593,29.2426407" id="Path-5"></path>
                    <path d="M59,60 L54.7573593,64.2426407" id="Path-5"></path>
                    <path d="M71,71 L66.7573593,75.2426407" id="Path-5"></path>
                </g>
                <g id="Group-2" transform="translate(58.405592, 32.577164) rotate(-45.000000) translate(-58.405592, -32.577164) translate(51.405592, -3.422836)" stroke="#E3BF95" stroke-width="2" stroke-linecap="round" stroke-linejoin="round">
                    <rect id="Rectangle-3" x="1.04805054e-13" y="6" width="14" height="52"></rect>
                    <polygon id="Rectangle-3" transform="translate(7.000000, 65.000000) scale(1, -1) translate(-7.000000, -65.000000) " points="7 58 14 72 1.08357767e-13 72"></polygon>
                    <rect id="Rectangle-3" x="-2.18491891e-13" y="-6.11066753e-13" width="14" height="6"></rect>
                    <path d="M7.12132034,6.70710678 L7.12132034,56.7071068" id="Path-6"></path>
                </g>
                <g id="Group-4" transform="translate(72.000000, 14.000000) rotate(45.000000) translate(-72.000000, -14.000000) translate(59.000000, 8.000000)" stroke="#E3BF95" stroke-width="2" stroke-linecap="round" stroke-linejoin="round">
                    <rect id="Rectangle-5" x="0" y="4.54747351e-13" width="26" height="12" rx="5"></rect>
                    <path d="M16.4142136,2.27484698e-13 L16.4142136,12" id="Path-8"></path>
                </g>
            </g>
        </g>
    </g>
</svg>