<?xml version="1.0" encoding="UTF-8"?>
<svg width="84px" height="84px" viewBox="0 0 84 84" version="1.1" xmlns="http://www.w3.org/2000/svg" xmlns:xlink="http://www.w3.org/1999/xlink">
    <!-- Generator: Sketch 43.1 (39012) - http://www.bohemiancoding.com/sketch -->
    <title>icon</title>
    <desc>Created with Sketch.</desc>
    <defs></defs>
    <g id="Page-1" stroke="none" stroke-width="1" fill="none" fill-rule="evenodd">
        <g id="desktop" transform="translate(-774.000000, -4845.000000)">
            <g id="icon" transform="translate(773.000000, 4844.000000)">
                <rect id="bg" x="0" y="0" width="86" height="86"></rect>
                <g id="Group-5" transform="translate(14.000000, 37.000000) rotate(-90.000000) translate(-14.000000, -37.000000) translate(-21.000000, 25.000000)" stroke="#E3BF95" stroke-width="2" stroke-linecap="round" stroke-linejoin="round">
                    <polyline id="Rectangle-6" points="0.199205408 1.77635684e-15 70 1.77635684e-15 70 24 44.4524143 24"></polyline>
                    <path d="M51,-1.33226763e-15 L51,24" id="Path-9"></path>
                    <path d="M31,0 L31,16" id="Path-9"></path>
                    <path d="M11,4.4408921e-16 L11,4" id="Path-9"></path>
                </g>
                <g id="Group-5" transform="translate(31.459292, 41.060889) rotate(-60.000000) translate(-31.459292, -41.060889) translate(-3.540708, 28.560889)" stroke="#E3BF95" stroke-width="2" stroke-linecap="round" stroke-linejoin="round">
                    <polyline id="Rectangle-6" points="0.306717165 0.93935541 70 1 70 25 43.763898 24.9901223"></polyline>
                    <path d="M50.6435935,1.20577137 L50.6435935,24.2057714" id="Path-9"></path>
                    <path d="M30.6435935,1.20577137 L30.6435935,17.2057714" id="Path-9"></path>
                    <path d="M10.6435935,1.20577137 L10.6435935,6.20577137" id="Path-9"></path>
                </g>
                <g id="Group-5" transform="translate(45.966453, 54.026575) rotate(-30.000000) translate(-45.966453, -54.026575) translate(12.466453, 42.026575)" stroke="#E3BF95" stroke-width="2" stroke-linecap="round" stroke-linejoin="round">
                    <polyline id="Rectangle-6" points="0.451490641 -3.62376795e-13 67 -3.62376795e-13 67 24 42.1738969 24"></polyline>
                    <path d="M48.7936292,0.59183521 L48.7936292,22.5918352" id="Path-9"></path>
                    <path d="M28.7936292,0.59183521 L28.7936292,15.5918352" id="Path-9"></path>
                    <path d="M8.7936292,0.59183521 L8.7936292,4.59183521" id="Path-9"></path>
                </g>
                <g id="Group-5" transform="translate(2.000000, 60.000000)" stroke="#E3BF95" stroke-width="2" stroke-linecap="round" stroke-linejoin="round">
                    <path d="M0,12 C0,5.372583 5.38024902,0 12.0003313,0 L82,0 L82,24 L12.0003313,24 C5.37273132,24 0,18.6288742 0,12 L0,12 Z" id="Rectangle-6"></path>
                    <ellipse id="Oval" cx="12" cy="12" rx="5" ry="5"></ellipse>
                    <path d="M65,0 L65,24" id="Path-9"></path>
                    <path d="M45,0 L45,24" id="Path-9"></path>
                    <path d="M25,0 L25,24" id="Path-9"></path>
                </g>
            </g>
        </g>
    </g>
</svg>