<svg xmlns="http://www.w3.org/2000/svg" width="126" height="32" viewBox="0 0 126 32"><path fill="#e3bf95" d="M34.76 7.48L34 7.34v-.21h3.74v.2l-1.15.18L39 14.33h.08l2.48-6.63-1.47-.36v-.21h2.97v.2l-.89.34L39 15.88h-1.01zM48.63 16c-2.9 0-5.17-1.35-5.17-4.4 0-2.71 2.17-4.6 5.2-4.6 1.46 0 2.27.32 2.75.5v2.31h-.34l-.79-2.02a3.6 3.6 0 0 0-1.65-.35c-1.8 0-3.34 1.53-3.34 4 0 2.52 1.46 4.08 3.56 4.08.31 0 .67-.06 1.01-.16v-3.44l-1.45-.19v-.23h3.06v3.91c-.34.16-1.36.59-2.84.59zm3.96-.12v-.22l1.43-.2V7.57l-1.43-.2v-.24h4.09c2.05 0 3.38.68 3.38 2.1 0 .96-.99 1.76-1.92 2v.03c.9.04 2.55.52 2.55 2.13 0 1.45-1.22 2.49-3.62 2.49zm3.68-4.29h-.6v3.84h.95c1.44 0 2.36-.74 2.36-2 0-1.51-1.2-1.84-2.71-1.84zm0-4.07h-.6v3.63h.71c1.28 0 1.99-.61 1.99-1.74 0-1.32-.88-1.89-2.1-1.89zm6.06 5.31V7.55l-1.19-.18v-.24h4.28v.23l-1.36.19v5.18c0 2.04 1.07 2.76 2.36 2.76 1.69 0 2.51-1.13 2.51-3.06V7.75l-1.63-.38v-.24h3.45v.23l-1.21.36v4.75c0 2.6-1.68 3.53-3.39 3.53-2.08 0-3.82-.83-3.82-3.17zm9.09 2.83l1.43-.2V7.57l-1.43-.2v-.24h4.52v.23l-1.45.19v7.89l1.45.2v.24h-4.52zm5.31 0l1.43-.2V7.57l-1.43-.2v-.24h4.5v.23l-1.42.19v7.88h2.99l1.09-2.13.33.09-.44 2.49h-7.05zm7.75.22v-.22l1.43-.2V7.57l-1.43-.2v-.24h4.16c2.92 0 5.41.72 5.41 4.16 0 3.03-2.3 4.59-5.33 4.59zm4.06-8.31h-.98v7.86h1.13c2.3 0 3.53-.94 3.53-3.91 0-2.57-.95-3.95-3.68-3.95zm6.47 8.09l1.43-.2V7.57l-1.43-.2v-.24h4.52v.23l-1.44.19v7.89l1.44.2v.24h-4.52zm5.3 0l1.26-.37v-7.5l-1.28-.42v-.24h2.44l5.24 6.05V7.75l-1.51-.38v-.24h3.37v.23l-1.24.34V16h-.45l-5.97-7.1v6.38l1.56.36v.24h-3.42zm15.36.34c-2.9 0-5.17-1.35-5.17-4.4 0-2.71 2.17-4.6 5.2-4.6 1.46 0 2.27.32 2.75.5v2.31h-.34l-.79-2.02a3.6 3.6 0 0 0-1.65-.35c-1.8 0-3.34 1.53-3.34 4 0 2.52 1.46 4.08 3.56 4.08.31 0 .67-.06 1.01-.16v-3.44l-1.45-.19v-.23h3.06v3.91c-.34.16-1.36.59-2.84.59zm9.63-6.28h.33V7.54c-.61-.3-1.6-.54-2.67-.54-1.68 0-3.11.99-3.11 2.61 0 1.46 1.15 2.06 2.28 2.48 1.18.43 2.35.82 2.35 1.81 0 1.22-.87 1.67-1.88 1.67-.65 0-1.28-.16-1.9-.5l-.66-1.86h-.32v2.25a7.1 7.1 0 0 0 2.69.54c1.85 0 3.59-.75 3.59-2.56 0-1.76-1.49-2.24-2.83-2.72-1.07-.37-1.94-.88-1.94-1.77 0-.78.68-1.5 1.88-1.5.59 0 1.1.17 1.55.44z"/><path fill="#fff" fill-opacity=".76" d="M35.14 26.35l-.46 1.43c-.06.11-.21.23-.33.23-.19 0-.35-.13-.35-.32l.02-.13 2.02-6.09c.08-.27.2-.47.46-.47s.39.21.48.47L39 27.56l.01.13c0 .19-.15.32-.36.32-.12 0-.28-.1-.32-.23l-.47-1.43zm1.36-4.3l-1.17 3.67h2.34zm5.5 5.93c-.37 0-.82-.08-1.24-.2v1.92c0 .16-.12.3-.32.3-.23 0-.34-.14-.34-.3v-5.38c0-.34-.04-.55-.18-.74a.27.27 0 0 1-.06-.16c0-.17.14-.28.29-.28.14 0 .28.11.39.27a3.52 3.52 0 0 1 1.55-.47c1.04 0 1.57.74 1.57 1.81v1.3c0 1.14-.39 1.93-1.66 1.93zm-1.24-3.66v2.91c.37.15.85.23 1.14.23.81 0 1.1-.44 1.1-1.41v-1.3c0-.82-.34-1.27-1.08-1.27-.37 0-.81.16-1.21.39.03.15.05.29.05.45zm3.81-.9a.24.24 0 0 1-.04-.15c0-.17.18-.3.32-.3.16 0 .23.09.32.22l1.17 1.73 1.16-1.73c.09-.13.17-.22.33-.22.14 0 .31.13.31.3 0 .06-.01.11-.04.15l-1.4 2 1.5 2.11a.33.33 0 0 1-.3.46c-.16 0-.22-.07-.34-.22l-1.24-1.83-1.3 1.89c-.07.11-.15.16-.26.16-.2 0-.35-.13-.35-.31 0-.05.01-.08.04-.13l1.52-2.13zm4.7 4.23V23.3c0-.18.14-.34.32-.34.19 0 .34.16.34.34v3.62l2.46-3.75a.42.42 0 0 1 .37-.21c.21 0 .36.16.36.37v4.35c0 .18-.15.33-.32.33a.33.33 0 0 1-.34-.33v-3.61l-2.44 3.75a.47.47 0 0 1-.37.19c-.22 0-.38-.16-.38-.36zm7 .03c0 .17-.14.31-.32.31s-.34-.14-.34-.31v-4.06h-1.15c-.17 0-.31-.14-.31-.29 0-.17.14-.3.31-.3h2.98c.17 0 .29.13.29.3 0 .15-.12.29-.29.29h-1.17zm4.11-.22c.46 0 .75-.13 1.11-.28a.3.3 0 0 1 .12-.03c.16 0 .28.13.28.27 0 .43-1.08.57-1.61.57-1.14 0-1.79-.69-1.79-1.58v-1.85c0-.92.65-1.62 1.85-1.62 1.1 0 1.64.61 1.64 1.55 0 .87-.5 1.4-1.68 1.4-.34 0-.75-.03-1.15-.1v.68c0 .59.42.99 1.23.99zm.95-2.97c0-.71-.37-1-1.02-1-.73 0-1.16.39-1.16.99v.82c.44.06.97.08 1.19.08.85 0 .99-.44.99-.89zm2.18 3.5c-.19 0-.33-.14-.33-.31v-4.39c0-.17.14-.32.33-.32.17 0 .33.15.33.32v1.84h.76l1.37-1.99c.08-.11.17-.16.28-.16.17 0 .3.1.3.26 0 .07-.02.14-.05.19l-1.46 2.07 1.46 2.05c.03.04.06.14.06.19.01.15-.14.25-.31.25a.32.32 0 0 1-.28-.15l-1.53-2.2h-.6v2.04c0 .17-.16.31-.33.31zm5.71-.31c0 .17-.14.31-.33.31-.18 0-.33-.14-.33-.31v-4.06H67.4a.3.3 0 1 1 0-.59h2.98c.18 0 .3.13.3.3a.3.3 0 0 1-.3.29h-1.16zm4.48-.34c-.47 1.41-.93 2.53-2.18 2.53-.2 0-.34-.12-.34-.3a.3.3 0 0 1 .3-.3c.72-.02 1.01-.35 1.35-1.3l-1.67-4.6c-.03-.03-.03-.08-.03-.11 0-.17.16-.29.34-.29.12 0 .24.09.29.21l1.38 4.01 1.22-4.01c.06-.11.18-.21.3-.21.16 0 .33.13.33.32l-.01.1zm4.15.64a4.7 4.7 0 0 1-1.24-.2v1.92c0 .16-.12.3-.33.3-.22 0-.33-.14-.33-.3v-5.38c0-.34-.04-.55-.18-.74a.27.27 0 0 1-.06-.16c0-.17.14-.28.29-.28.13 0 .27.11.39.27.5-.26 1.03-.47 1.55-.47 1.04 0 1.57.74 1.57 1.81v1.3c0 1.14-.4 1.93-1.66 1.93zm-1.24-3.66v2.91c.36.15.85.23 1.13.23.82 0 1.11-.44 1.11-1.41v-1.3c0-.82-.35-1.27-1.09-1.27-.36 0-.81.16-1.2.39.03.15.05.29.05.45zm6.74.97v-.66c0-.79-.38-1.16-1.19-1.16-.37 0-.58.08-.82.22a.43.43 0 0 1-.24.07c-.15 0-.21-.13-.22-.25-.04-.4.71-.57 1.39-.57 1.24 0 1.74.68 1.74 1.95v2.18c0 .25.09.38.27.38l.08-.01c.16 0 .23.13.23.26 0 .19-.21.26-.39.26-.31 0-.59-.21-.77-.55-.42.39-.9.58-1.45.58-1.02 0-1.52-.58-1.52-1.42v-.04c0-.93.58-1.41 1.77-1.41.34 0 .73.07 1.12.17zm-1.13.34c-.94 0-1.11.42-1.11.91v.04c0 .5.23.87 1 .87.47 0 .85-.16 1.24-.48v-1.16c-.4-.12-.83-.18-1.13-.18zm6.45 2.02V23.3c0-.18.14-.34.33-.34s.33.16.33.34v3.62l2.47-3.75a.42.42 0 0 1 .37-.21c.2 0 .36.16.36.37v4.35c0 .18-.16.33-.33.33a.33.33 0 0 1-.33-.33v-3.61l-2.45 3.75a.45.45 0 0 1-.36.19c-.22 0-.39-.16-.39-.36zm11.86-4.62c.19 0 .33.15.33.32v4.05h.36c.19 0 .33.14.33.32v1.27c0 .18-.14.31-.33.31-.18 0-.33-.13-.33-.31v-1.08h-3.66v1.08c0 .18-.15.31-.33.31-.19 0-.33-.13-.33-.31v-1.27c0-.18.14-.32.33-.32h.23c.35-.34.54-1.05.59-2.03l.09-2.02c.03-.24.2-.32.32-.32zm-2.2 2.34c-.03.81-.2 1.51-.53 2.03h2.4v-3.86h-1.79zm4.21 2.28V23.3c0-.18.14-.34.33-.34s.33.16.33.34v3.62l2.46-3.75a.44.44 0 0 1 .38-.21c.2 0 .35.16.35.37v4.35c0 .18-.15.33-.32.33a.34.34 0 0 1-.34-.33v-3.61l-2.44 3.75a.45.45 0 0 1-.36.19c-.23 0-.39-.16-.39-.36zm7.22-2.23v.01c.74.12 1.05.56 1.05 1.21 0 .82-.55 1.35-1.7 1.35-.53 0-1.54-.1-1.54-.5 0-.13.09-.28.34-.28l.04.01c.28.1.68.24 1.19.24.66 0 1.03-.24 1.03-.87 0-.3-.08-.81-1.29-.88-.21-.01-.44-.03-.44-.27 0-.23.21-.23.42-.25 1.08-.1 1.21-.63 1.21-.94 0-.5-.31-.78-1.03-.78-.52 0-.8.24-1.06.24-.18 0-.3-.13-.3-.27 0-.38.85-.5 1.39-.5 1.09 0 1.63.55 1.63 1.36 0 .59-.26 1-.94 1.12zm4.9-.13v-.66c0-.79-.39-1.16-1.19-1.16-.38 0-.59.08-.82.22a.43.43 0 0 1-.24.07c-.16 0-.22-.13-.23-.25-.04-.4.71-.57 1.39-.57 1.25 0 1.74.68 1.74 1.95v2.18c0 .25.1.38.28.38l.08-.01c.15 0 .22.13.22.26 0 .19-.2.26-.38.26-.32 0-.59-.21-.77-.55a2.1 2.1 0 0 1-1.45.58c-1.03 0-1.52-.58-1.52-1.42v-.04c0-.93.57-1.41 1.76-1.41.35 0 .73.07 1.13.17zm-1.14.34c-.93 0-1.1.42-1.1.91v.04c0 .5.23.87 1 .87.47 0 .84-.16 1.24-.48v-1.16a4.37 4.37 0 0 0-1.14-.18zm3.42 2.02V23.3c0-.18.14-.34.32-.34.19 0 .34.16.34.34v3.62l2.46-3.75a.42.42 0 0 1 .37-.21c.21 0 .36.16.36.37v4.35c0 .18-.15.33-.33.33a.33.33 0 0 1-.33-.33v-3.61l-2.44 3.75a.47.47 0 0 1-.37.19c-.22 0-.38-.16-.38-.36zm2.64-6.27c.07-.1.17-.14.26-.14.13 0 .25.08.19.28-.14.49-.73.75-1.18.75-.43 0-1.09-.25-1.19-.75a.22.22 0 0 1 .21-.28c.09 0 .18.04.24.14.25.31.47.43.74.43.25 0 .5-.12.73-.43zm3.39 6.3v-2.04h2.37v2.04c0 .17.15.31.34.31.18 0 .32-.14.32-.31v-4.39a.32.32 0 0 0-.32-.32c-.19 0-.34.15-.34.32v1.84h-2.37v-1.84a.32.32 0 0 0-.33-.32.33.33 0 0 0-.33.32v4.39c0 .17.15.31.33.31.19 0 .33-.14.33-.31z"/><path fill="#ddb280" d="M16.44 5.59c.85.14 1.75.38 2.59.73l-2.37 6.76-2.23 6.34-1 2.86-1.34-3.56-2.77-7.49-1.43-3.95a12.66 12.66 0 0 1 8.55-1.69zm1.19 14.81v.31c0 .02.88.13.97.15.31.06.65.14.92.31.53.32.94 1.01.94 1.78v6.22c0 .38-.65 1.46-1.9 1.75-1.73.4-3.62.39-5.37.17-2.21-.28-4.29-.79-6.05-2.26-3.06-2.53-4.01-6.94-4.01-10.74 0-3.11.64-6.73 2.77-9.15l.55 1.46a1683.32 1683.32 0 0 1 6.18 16.63s4.73-13.53 7.14-20.35a6.1 6.1 0 0 1 1.96 1.64 6.5 6.5 0 0 1 1.12 2.46h.27V4.77h-.23s-.33.95-1.44.92a6.92 6.92 0 0 1-1.27-.17l.89-2.48A4.53 4.53 0 0 1 23.16.72l.96-.37V0h-6.5v.34c.76.04 1.6.12 2.1.69.3.34.41.81.42 1.26a6.5 6.5 0 0 1-.5 2.29l-.27.76-.43-.09c-1.14-.22-2.29-.47-3.45-.56-2.77-.23-5.55.28-7.98 1.5-.41-1.18-.8-2.37-1.16-3.57a1.8 1.8 0 0 1-.12-.69C6.29.92 7.79.49 8.61.34V.03H0v.33S.48.34 1.03.45c1.34.29 2.18 1.6 2.66 2.78a201.7 201.7 0 0 1 1.68 4.3 12.78 12.78 0 0 0-2.62 2.67C.01 13.96-.33 18.69 1.07 23.02c.32.98.7 1.95 1.19 2.87 1.91 3.58 5.69 5.36 9.59 5.87a27.95 27.95 0 0 0 11.3-.85c-.01-2.36-.04-4.72-.01-7.07.01-.6-.07-1.23.21-1.78.21-.43.62-.73 1.05-.93.14-.06 1.6-.41 1.6-.36v-.37z"/></svg>